<svg xmlns="http://www.w3.org/2000/svg" width="1em" height="1em" viewBox="0 0 24 24">
    <path fill="currentColor"
          d="M10 3H4a1 1 0 0 0-1 1v6a1 1 0 0 0 1 1h6a1 1 0 0 0 1-1V4a1 1 0 0 0-1-1M9 9H5V5h4zm11 4h-6a1 1 0 0 0-1 1v6a1 1 0 0 0 1 1h6a1 1 0 0 0 1-1v-6a1 1 0 0 0-1-1m-1 6h-4v-4h4zM17 3c-2.206 0-4 1.794-4 4s1.794 4 4 4s4-1.794 4-4s-1.794-4-4-4m0 6c-1.103 0-2-.897-2-2s.897-2 2-2s2 .897 2 2s-.897 2-2 2M7 13c-2.206 0-4 1.794-4 4s1.794 4 4 4s4-1.794 4-4s-1.794-4-4-4m0 6c-1.103 0-2-.897-2-2s.897-2 2-2s2 .897 2 2s-.897 2-2 2"/>
</svg>