<svg width="257" height="284" viewBox="0 0 257 284" fill="none" xmlns="http://www.w3.org/2000/svg">
<path d="M39.4802 55.0191C39.4802 117.541 16.5911 160.475 16.5911 190.602C16.5911 220.728 28.8309 284 126.782 284C224.733 284 239.107 198.881 239.107 165.745C239.113 10.5751 39.4802 -55.7067 39.4802 55.0191Z" fill="#448BE2" fill-opacity="0.1"/>
<path d="M75.3553 183.134L64.7187 271.313H61.231L71.8666 183.134H75.3553Z" fill="#D2DCFF"/>
<path d="M28.3533 183.133L27.1561 193.051L17.7176 271.312H14.2288L23.715 192.662L24.8644 183.133H28.3533Z" fill="#D2DCFF"/>
<path d="M75.3553 271.312H71.8666L70.3953 259.116L68.6519 244.657L62.9151 197.095L61.231 183.133H64.7197L66.4516 197.494L70.3953 230.195L72.1396 244.655L75.3553 271.312Z" fill="#D2DCFF"/>
<path d="M122.358 271.312H118.869L110.614 202.87H110.613L108.233 183.133H111.722L114.149 203.251L122.358 271.312Z" fill="#D2DCFF"/>
<path d="M28.5236 124.188H25.0347V177.527H28.5236V124.188Z" fill="#D2DCFF"/>
<path d="M75.9244 124.188H72.4366V177.528H75.9244V124.188Z" fill="#D2DCFF"/>
<path d="M113.186 177.527H65.2576C66.8058 177.527 68.0611 178.783 68.0611 180.331C68.0611 181.879 66.8058 183.134 65.2576 183.134H113.186C114.734 183.134 115.989 181.879 115.989 180.331C115.988 178.782 114.734 177.527 113.186 177.527Z" fill="#D2DCFF"/>
<path d="M68.06 180.33C68.06 178.782 66.8047 177.526 65.2565 177.526H28.5972H23.8749C22.3268 177.526 21.0714 178.782 21.0714 180.33C21.0714 181.878 22.3268 183.133 23.8749 183.133H28.5972H65.2576C66.8057 183.133 68.06 181.878 68.06 180.33Z" fill="#87BDFF"/>
<path d="M78.7747 84.0475H22.1845C20.0269 84.0475 18.2773 85.7971 18.2773 87.9548V120.282C18.2773 122.44 20.0269 124.189 22.1845 124.189H78.7747C80.9323 124.189 82.6819 122.44 82.6819 120.282V87.9548C82.6819 85.7961 80.9323 84.0475 78.7747 84.0475Z" fill="#D2DCFF"/>
<path d="M28.3533 183.133L27.1571 193.051C25.8965 192.908 24.7451 192.778 23.7161 192.663L24.8655 183.133H28.3533Z" fill="#87BDFF"/>
<path d="M64.7197 183.133L66.4516 197.494C65.2669 197.361 64.0874 197.227 62.9151 197.095L61.231 183.133H64.7197Z" fill="#87BDFF"/>
<path d="M114.149 203.251C113.023 203.131 111.842 203.004 110.614 202.87H110.613L108.233 183.133H111.722L114.149 203.251Z" fill="#87BDFF"/>
<path d="M25.0347 124.188H28.5236V131.555L25.0347 131.169V124.188Z" fill="#AEC3FF"/>
<path d="M75.9244 124.188V136.802L72.4366 136.417V124.188H75.9244Z" fill="#AEC3FF"/>
<path d="M94.8564 34.9875C81.2647 37.2531 64.3295 32.1943 62.2061 28.9724C57.2855 36.4712 54.7852 36.2366 54.7852 36.2366V41.8602L53.6742 40.7491C53.3315 39.9746 52.7874 39.2051 51.9734 39.2051C47.4982 39.2051 47.1856 51.6527 54.7177 52.3722C54.8662 52.8602 55.0199 53.3161 55.1766 53.7293V73.6528H72.1658V65.8165C73.308 66.1301 74.4023 66.3098 75.4074 66.3098C82.1057 66.3098 93.5201 56.4601 94.8139 40.7491C94.8917 37.7847 94.8564 34.9875 94.8564 34.9875Z" fill="#FCBEB7"/>
<path d="M74.2352 13.6632C62.5187 13.6632 60.1751 19.9119 60.1751 19.9119C55.1756 19.9119 47.521 29.0513 52.1301 39.2052L52.154 39.229L54.7862 41.8612V36.2376C54.7862 36.2376 57.2855 36.4723 62.2072 28.9734C64.3306 32.1943 81.2668 37.2531 94.8575 34.9885C94.8575 34.9885 94.8928 37.7857 94.8149 40.7502C94.8149 40.7533 94.8149 40.7564 94.8149 40.7595C99.8903 26.0734 89.7011 13.6632 74.2352 13.6632Z" fill="#311643"/>
<path d="M69.1972 45.0385C68.6791 45.0385 68.2596 44.619 68.2596 44.1009V42.3502C68.2596 41.8321 68.6791 41.4126 69.1972 41.4126C69.7153 41.4126 70.1348 41.8321 70.1348 42.3502V44.1009C70.1348 44.619 69.7143 45.0385 69.1972 45.0385Z" fill="#311643"/>
<path d="M86.5768 45.0385C86.0586 45.0385 85.6391 44.619 85.6391 44.1009V42.3502C85.6391 41.8321 86.0586 41.4126 86.5768 41.4126C87.0949 41.4126 87.5144 41.8321 87.5144 42.3502V44.1009C87.5144 44.619 87.0949 45.0385 86.5768 45.0385Z" fill="#311643"/>
<path d="M76.0886 55.9793C74.4158 55.9793 73.2768 55.3501 72.5863 54.777C71.7162 54.0543 71.3548 53.2662 71.3393 53.233C71.2417 53.017 71.3382 52.7626 71.5542 52.665C71.7701 52.5674 72.0235 52.6639 72.1221 52.8789C72.1709 52.9848 73.3588 55.4768 76.8113 55.077C77.047 55.05 77.2598 55.2193 77.2879 55.455C77.3159 55.6907 77.1466 55.9035 76.9109 55.9316C76.6233 55.9648 76.3492 55.9793 76.0886 55.9793Z" fill="#311643"/>
<path d="M86.5766 34.08C83.1927 34.08 80.3986 36.6529 80.0466 39.9444C78.2066 39.0785 76.5827 39.5478 75.7261 39.9413C75.373 36.6509 72.58 34.08 69.1971 34.08C65.5754 34.08 62.6296 37.0267 62.6296 40.6474C62.6296 44.2681 65.5764 47.2148 69.1971 47.2148C72.7367 47.2148 75.6305 44.3989 75.7583 40.8893C76.3023 40.5809 78.0498 39.7825 80.0144 40.8945C80.1452 44.401 83.038 47.2148 86.5756 47.2148C90.1973 47.2148 93.1431 44.2681 93.1431 40.6474C93.1431 37.0267 90.1983 34.08 86.5766 34.08ZM69.1971 46.3561C66.0488 46.3561 63.4883 43.7956 63.4883 40.6474C63.4883 37.4992 66.0488 34.9387 69.1971 34.9387C72.3453 34.9387 74.9058 37.4992 74.9058 40.6474C74.9058 43.7956 72.3442 46.3561 69.1971 46.3561ZM86.5766 46.3561C83.4284 46.3561 80.8679 43.7956 80.8679 40.6474C80.8679 37.4992 83.4284 34.9387 86.5766 34.9387C89.7238 34.9387 92.2854 37.4992 92.2854 40.6474C92.2854 43.7956 89.7238 46.3561 86.5766 46.3561Z" fill="white"/>
<path d="M72.1646 73.6528V65.8165C68.3227 64.7605 63.9493 62.174 60.6619 59.708L72.1646 73.6528Z" fill="#F9AFAB"/>
<path d="M120.436 207.608L116.888 207.122L113.529 179.272H117.017L120.436 207.608Z" fill="#EBEDF4"/>
<path d="M111.014 101.18L114.095 107.086H97.6743L111.014 101.18Z" fill="#FCBEB7"/>
<path d="M79.5627 255.912V268.628C79.5627 270.11 80.7651 271.313 82.2478 271.313H118.313C118.656 271.313 118.934 271.034 118.934 270.692V268.348C118.934 267.218 118.275 266.191 117.247 265.719L96.393 255.912H79.5627Z" fill="#444444"/>
<path d="M79.5627 248.678L79.5721 255.912H96.392L97.556 248.678H79.5627Z" fill="#FCBEB7"/>
<path d="M72.1355 66.263L94.9715 76.5778C98.1115 77.9962 100.667 80.4539 102.206 83.5367L111.014 101.18L97.6743 107.086L98.7791 146.086H32.3051L35.2073 109.662L23.1855 109.74V89.8113C23.1855 83.6385 26.8944 78.0709 32.5907 75.6921L55.1754 66.262C55.1764 66.263 65.0426 72.737 72.1355 66.263Z" fill="#2A3256"/>
<path d="M76.8921 68.3273C73.4563 71.1048 69.2095 72.6125 64.7301 72.6125C59.986 72.6125 55.3488 70.7663 51.8143 67.6659L51.0875 67.969C54.7798 71.3 59.7191 73.2998 64.7291 73.2998C69.4877 73.2998 73.9952 71.6551 77.5992 68.6346L76.8921 68.3273Z" fill="white"/>
<path d="M114.956 255.912V268.628C114.956 270.11 116.159 271.313 117.641 271.313H153.707C154.051 271.313 154.328 271.034 154.328 270.692V268.348C154.328 267.218 153.668 266.191 152.64 265.719L131.787 255.912H114.956Z" fill="#444444"/>
<path d="M114.956 248.678L114.965 255.912H131.786L132.949 248.678H114.956Z" fill="#FCBEB7"/>
<path d="M67.6967 146.086L67.6956 146.765C67.6821 163.846 81.5262 177.701 98.6088 177.701H112.969L114.956 248.677H132.95L146.216 164.051C147.696 154.615 140.4 146.086 130.848 146.086H67.6967Z" fill="#373737"/>
<path d="M146.406 161.679C144.857 163.946 142.25 165.434 139.296 165.434C134.539 165.434 130.684 161.579 130.684 156.822C130.684 152.255 134.239 148.518 138.734 148.229C143.374 150.964 146.431 156.03 146.406 161.679Z" fill="#444444"/>
<path d="M111.012 161.347L112.969 177.702H101.187L111.012 161.347Z" fill="#87BDFF"/>
<path d="M32.303 146.086V146.765C32.2896 163.846 46.1337 177.701 63.2163 177.701H77.5764L79.5638 248.677H97.557L110.824 164.051C112.303 154.615 105.007 146.086 95.4555 146.086H32.303Z" fill="#373737"/>
<path d="M23.1865 109.74L23.8261 131.829C23.9985 137.798 28.888 142.548 34.8605 142.548H73.3109L75.8922 133.555L41.9762 127.965L41.7363 109.62L23.1865 109.74Z" fill="#FCBEB7"/>
<path d="M41.7363 109.621L46.9435 128.784L41.9761 127.965L41.7363 109.621Z" fill="#4A62D3"/>
<path d="M71.1543 132.774L65.0925 142.548H73.3109L75.8922 133.555L71.1543 132.774Z" fill="#F9AFAB"/>
<path d="M137.226 107.086H87.0896C84.9589 107.086 83.0858 108.497 82.4981 110.545L73.3109 142.547H52.9804C52.0033 142.547 51.2111 143.339 51.2111 144.316C51.2111 145.294 52.0033 146.086 52.9804 146.086H72.2954H78.4372H132.372L141.818 113.181C142.694 110.128 140.403 107.086 137.226 107.086Z" fill="#448BE2"/>
<path d="M111.012 161.347C109.495 163.8 106.78 165.433 103.684 165.433C98.9276 165.433 95.0722 161.578 95.0722 156.821C95.0722 152.186 98.7334 148.405 103.323 148.216C107.883 150.897 110.918 155.825 111.012 161.347Z" fill="#444444"/>
<path d="M111.575 127.994C111.706 126.5 110.983 125.216 109.959 125.125C108.935 125.035 107.999 126.174 107.868 127.668C107.736 129.163 108.46 130.447 109.483 130.537C110.507 130.627 111.443 129.489 111.575 127.994Z" fill="#87BDFF"/>
<path d="M101.894 82.9459C101.09 83.4869 100.123 83.8025 99.0813 83.8025C96.2965 83.8025 94.0392 81.5441 94.0392 78.7593C94.0392 77.9131 94.2468 77.1157 94.6154 76.4158L94.9716 76.5768C97.909 77.9038 100.334 80.1403 101.894 82.9459Z" fill="#4A62D3"/>
<path d="M235.551 107.951V106.438C235.551 105.971 235.171 105.591 234.704 105.591H199.595C197.824 105.591 196.388 107.027 196.388 108.798V111.378C196.388 113.149 197.824 114.585 199.595 114.585H234.704C235.171 114.585 235.551 114.206 235.551 113.737V112.225C235.551 111.758 235.171 111.378 234.704 111.378H200.884C200.172 111.378 199.594 110.8 199.594 110.087C199.594 109.375 200.172 108.797 200.884 108.797H234.704C235.171 108.798 235.551 108.419 235.551 107.951Z" fill="#2A3256"/>
<path d="M234.034 108.798V111.378H200.884C200.172 111.378 199.594 110.8 199.594 110.087C199.594 109.375 200.172 108.797 200.884 108.797H234.034V108.798Z" fill="#FDFDFD"/>
<path d="M233.043 98.9559V97.4433C233.043 96.976 232.663 96.5961 232.195 96.5961H202.103C200.331 96.5961 198.895 98.0322 198.895 99.8031V102.383C198.895 104.154 200.331 105.59 202.103 105.59H232.195C232.663 105.59 233.043 105.21 233.043 104.743V103.229C233.043 102.762 232.663 102.382 232.195 102.382H203.393C202.681 102.382 202.104 101.804 202.104 101.091C202.104 100.379 202.682 99.8009 203.393 99.8009H232.195C232.663 99.8031 233.043 99.4233 233.043 98.9559Z" fill="#448BE2"/>
<path d="M231.926 99.8031V102.383H203.392C202.679 102.383 202.103 101.805 202.103 101.092C202.103 100.38 202.681 99.802 203.392 99.802L231.926 99.8031Z" fill="#FDFDFD"/>
<path d="M207.536 120.521L188.932 270.933H185.238L203.842 120.521H207.536Z" fill="#D2DCFF"/>
<path d="M256.418 270.933H252.724L236.809 142.254L234.121 120.521H237.815L240.465 141.946L256.418 270.933Z" fill="#D2DCFF"/>
<path d="M22.2976 120.521L17.3208 160.764L3.69402 270.933H0L13.5874 161.079L18.6036 120.521H22.2976Z" fill="#D2DCFF"/>
<path d="M71.1801 270.933H67.4861L53.4828 157.714L48.8825 120.521H52.5765L57.1385 157.406L71.1801 270.933Z" fill="#D2DCFF"/>
<path d="M18.6036 120.521H22.2976L17.3208 160.764L13.5874 161.079L18.6036 120.521Z" fill="#87BDFF"/>
<path d="M52.5765 120.521L57.1385 157.406L53.4828 157.714L48.8825 120.521H52.5765Z" fill="#87BDFF"/>
<path d="M240.465 141.946L236.809 142.254L234.121 120.521H237.815L240.465 141.946Z" fill="#87BDFF"/>
<path d="M248.101 120.521H59.2246V114.586H248.101C249.465 114.586 250.57 115.691 250.57 117.055V118.052C250.571 119.416 249.465 120.521 248.101 120.521Z" fill="#D2DCFF"/>
<path d="M59.2246 120.521H9.2498C7.88603 120.521 6.78058 119.416 6.78058 118.052V117.055C6.78058 115.691 7.88603 114.586 9.2498 114.586H59.2246V120.521Z" fill="#87BDFF"/>
<path d="M192.633 99.3795H88.9814L100.537 37.0848H204.189L192.633 99.3795Z" fill="#D2DCFF"/>
<path d="M140.299 71.8654H151.941L167.267 114.586H146.931L140.299 71.8654Z" fill="#448BE2"/>
<path d="M139.879 111.843H105.281C104.651 111.843 104.139 112.354 104.139 112.983V113.444C104.139 114.075 104.651 114.586 105.281 114.586H139.879C140.509 114.586 141.021 114.075 141.021 113.444V112.983C141.021 112.354 140.509 111.843 139.879 111.843Z" fill="#87BDFF"/>
<path d="M140.299 71.8654V99.3795H144.57L140.299 71.8654Z" fill="#AEC3FF"/>
</svg>
