<svg width="48" height="48" viewBox="0 0 48 48" fill="none" xmlns="http://www.w3.org/2000/svg">
<path d="M42 8H4V12H8.6L15.16 30C15.5726 31.1671 16.3361 32.178 17.3459 32.8941C18.3556 33.6102 19.5621 33.9965 20.8 34H38V30H20.8C20.389 29.9998 19.988 29.873 19.6516 29.6368C19.3152 29.4006 19.0597 29.0665 18.92 28.68L18 26H36.56C37.4281 25.9988 38.2721 25.7151 38.9648 25.192C39.6576 24.6689 40.1613 23.9346 40.4 23.1L44 10.54C44.0813 10.2774 44.1076 10.0008 44.0772 9.72755C44.0468 9.45431 43.9604 9.19026 43.8234 8.9519C43.6864 8.71355 43.5017 8.506 43.2809 8.34221C43.0601 8.17843 42.8079 8.06194 42.54 8C42.3612 7.97088 42.1788 7.97088 42 8ZM36.5 22H16.5L12.86 12H39.34L36.5 22Z" fill="white"/>
<path d="M21 42C22.6569 42 24 40.6569 24 39C24 37.3431 22.6569 36 21 36C19.3431 36 18 37.3431 18 39C18 40.6569 19.3431 42 21 42Z" fill="white"/>
<path d="M33 42C34.6569 42 36 40.6569 36 39C36 37.3431 34.6569 36 33 36C31.3431 36 30 37.3431 30 39C30 40.6569 31.3431 42 33 42Z" fill="white"/>
</svg>
