<svg width="200" height="200" viewBox="0 0 200 200" fill="none" xmlns="http://www.w3.org/2000/svg">
<circle cx="100" cy="100" r="100" fill="#5356FF" fill-opacity="0.25"/>
<circle cx="100" cy="100" r="75" fill="#5356FF" fill-opacity="0.5"/>
<circle cx="100" cy="100" r="50" fill="#5356FF" fill-opacity="0.75"/>
<path d="M121.661 76.0049H120.905C120.756 76.0049 120.635 76.1258 120.635 76.2751V86.4245C120.635 86.5737 120.756 86.6947 120.905 86.6947H121.661C121.81 86.6947 121.93 86.5737 121.93 86.4245V76.2751C121.93 76.1258 121.81 76.0049 121.661 76.0049Z" fill="#EDEDED"/>
<path d="M116.74 56H82.594C80.0568 56 78 58.0596 78 60.6002V139.587C78 142.128 80.0568 144.188 82.594 144.188H116.74C119.277 144.188 121.334 142.128 121.334 139.587V60.6002C121.334 58.0596 119.277 56 116.74 56Z" fill="#F4F4F4"/>
<path d="M116.062 58.6206H111.091V59.2194C111.091 59.5921 111.018 59.9612 110.876 60.3055C110.733 60.6498 110.524 60.9626 110.261 61.2261C109.998 61.4896 109.685 61.6985 109.341 61.841C108.997 61.9835 108.629 62.0568 108.256 62.0566H92.4479C92.0757 62.0568 91.7071 61.9835 91.3632 61.841C91.0192 61.6985 90.7067 61.4896 90.4434 61.2261C90.1802 60.9626 89.9713 60.6498 89.8289 60.3055C89.6864 59.9612 89.613 59.5921 89.613 59.2194V58.6206H84.9589C84.0461 58.6206 83.1708 58.9837 82.5253 59.63C81.8799 60.2763 81.5173 61.1528 81.5173 62.0668V138.774C81.5173 139.688 81.8799 140.565 82.5253 141.211C83.1708 141.857 84.0461 142.22 84.9589 142.22H116.062C116.975 142.22 117.85 141.857 118.496 141.211C119.141 140.565 119.504 139.688 119.504 138.774V62.0727C119.505 61.6197 119.416 61.1709 119.244 60.7521C119.071 60.3333 118.818 59.9527 118.498 59.6321C118.178 59.3115 117.799 59.0571 117.381 58.8835C116.963 58.71 116.515 58.6206 116.062 58.6206Z" fill="white"/>
<path d="M101.083 58.6337H95.9438C95.6919 58.6337 95.4878 58.8381 95.4878 59.0903V59.4068C95.4878 59.659 95.6919 59.8634 95.9438 59.8634H101.083C101.335 59.8634 101.539 59.659 101.539 59.4068V59.0903C101.539 58.8381 101.335 58.6337 101.083 58.6337Z" fill="#FEFEFE"/>
<path d="M103.151 59.9469C103.536 59.9469 103.848 59.6343 103.848 59.2486C103.848 58.8629 103.536 58.5502 103.151 58.5502C102.766 58.5502 102.453 58.8629 102.453 59.2486C102.453 59.6343 102.766 59.9469 103.151 59.9469Z" fill="#FEFEFE"/>
<path d="M99.9311 109.385C104.458 109.385 108.129 105.71 108.129 101.176C108.129 96.6428 104.458 92.9678 99.9311 92.9678C95.4038 92.9678 91.7336 96.6428 91.7336 101.176C91.7336 105.71 95.4038 109.385 99.9311 109.385Z" fill="white"/>
<path d="M110.715 82.0489C110.714 84.2188 110.072 86.3399 108.868 88.144C107.664 89.9481 105.953 91.3543 103.951 92.1846C101.949 93.0149 99.7458 93.2321 97.6205 92.8087C95.4952 92.3853 93.543 91.3403 92.0108 89.806C90.4786 88.2716 89.4351 86.3167 89.0125 84.1886C88.5898 82.0604 88.8068 79.8545 89.6361 77.8499C90.4655 75.8452 91.8698 74.1318 93.6716 72.9264C95.4734 71.7209 97.5917 71.0776 99.7586 71.0776C101.197 71.0777 102.622 71.3615 103.951 71.9129C105.281 72.4643 106.488 73.2724 107.506 74.2912C108.523 75.31 109.33 76.5194 109.881 77.8505C110.431 79.1816 110.715 80.6082 110.715 82.0489ZM98.4921 87.8561L106.619 79.7179C106.685 79.6523 106.737 79.5742 106.773 79.4883C106.809 79.4024 106.827 79.3103 106.827 79.2173C106.827 79.1243 106.809 79.0322 106.773 78.9462C106.737 78.8603 106.685 78.7823 106.619 78.7166L105.619 77.7226C105.554 77.6568 105.476 77.6046 105.39 77.5689C105.305 77.5333 105.213 77.5149 105.12 77.5149C105.027 77.5149 104.935 77.5333 104.85 77.5689C104.764 77.6046 104.686 77.6568 104.621 77.7226L97.9922 84.3602L94.8971 81.2537C94.7643 81.1214 94.5845 81.0472 94.3971 81.0472C94.2098 81.0472 94.03 81.1214 93.8971 81.2537L92.8972 82.261C92.765 82.394 92.6909 82.574 92.6909 82.7616C92.6909 82.9493 92.765 83.1292 92.8972 83.2623L97.4924 87.862C97.558 87.9279 97.6359 87.9801 97.7217 88.0158C97.8075 88.0514 97.8995 88.0698 97.9924 88.0698C98.0852 88.0698 98.1772 88.0514 98.263 88.0158C98.3488 87.9801 98.4268 87.9279 98.4924 87.862L98.4921 87.8561Z" fill="#0B5DB6"/>
</svg>
